<mxfile host="Electron" agent="Mozilla/5.0 (Windows NT 10.0; Win64; x64) AppleWebKit/537.36 (KHTML, like Gecko) draw.io/26.0.16 Chrome/132.0.6834.196 Electron/34.2.0 Safari/537.36" version="26.0.16">
  <diagram id="C5RBs43oDa-KdzZeNtuy" name="Page-1">
    <mxGraphModel dx="1909" dy="1129" grid="1" gridSize="10" guides="1" tooltips="1" connect="1" arrows="1" fold="1" page="1" pageScale="1" pageWidth="827" pageHeight="1169" math="0" shadow="0">
      <root>
        <mxCell id="WIyWlLk6GJQsqaUBKTNV-0" />
        <mxCell id="WIyWlLk6GJQsqaUBKTNV-1" parent="WIyWlLk6GJQsqaUBKTNV-0" />
        <mxCell id="70mB0MUAQwCus1WgMACm-6" style="edgeStyle=orthogonalEdgeStyle;rounded=0;orthogonalLoop=1;jettySize=auto;html=1;exitX=0.5;exitY=1;exitDx=0;exitDy=0;entryX=0.5;entryY=0;entryDx=0;entryDy=0;" edge="1" parent="WIyWlLk6GJQsqaUBKTNV-1" source="70mB0MUAQwCus1WgMACm-0" target="70mB0MUAQwCus1WgMACm-1">
          <mxGeometry relative="1" as="geometry" />
        </mxCell>
        <mxCell id="70mB0MUAQwCus1WgMACm-0" value="Main" style="rounded=1;whiteSpace=wrap;html=1;" vertex="1" parent="WIyWlLk6GJQsqaUBKTNV-1">
          <mxGeometry x="80" y="60" width="170" height="50" as="geometry" />
        </mxCell>
        <mxCell id="70mB0MUAQwCus1WgMACm-1" value="Poll for keypress" style="rounded=0;whiteSpace=wrap;html=1;" vertex="1" parent="WIyWlLk6GJQsqaUBKTNV-1">
          <mxGeometry x="82.5" y="170" width="165" height="60" as="geometry" />
        </mxCell>
        <mxCell id="70mB0MUAQwCus1WgMACm-4" style="edgeStyle=orthogonalEdgeStyle;rounded=0;orthogonalLoop=1;jettySize=auto;html=1;exitX=1;exitY=0.5;exitDx=0;exitDy=0;exitPerimeter=0;entryX=1;entryY=0.5;entryDx=0;entryDy=0;" edge="1" parent="WIyWlLk6GJQsqaUBKTNV-1" source="70mB0MUAQwCus1WgMACm-3" target="70mB0MUAQwCus1WgMACm-0">
          <mxGeometry relative="1" as="geometry">
            <Array as="points">
              <mxPoint x="300" y="320" />
              <mxPoint x="300" y="85" />
            </Array>
          </mxGeometry>
        </mxCell>
        <mxCell id="70mB0MUAQwCus1WgMACm-5" value="No" style="edgeLabel;html=1;align=center;verticalAlign=middle;resizable=0;points=[];" vertex="1" connectable="0" parent="70mB0MUAQwCus1WgMACm-4">
          <mxGeometry x="-0.84" y="5" relative="1" as="geometry">
            <mxPoint as="offset" />
          </mxGeometry>
        </mxCell>
        <mxCell id="70mB0MUAQwCus1WgMACm-19" style="edgeStyle=orthogonalEdgeStyle;rounded=0;orthogonalLoop=1;jettySize=auto;html=1;exitX=0.5;exitY=1;exitDx=0;exitDy=0;exitPerimeter=0;entryX=0.5;entryY=0;entryDx=0;entryDy=0;" edge="1" parent="WIyWlLk6GJQsqaUBKTNV-1" source="70mB0MUAQwCus1WgMACm-3" target="70mB0MUAQwCus1WgMACm-17">
          <mxGeometry relative="1" as="geometry" />
        </mxCell>
        <mxCell id="70mB0MUAQwCus1WgMACm-3" value="If 4 char input, correct?" style="strokeWidth=2;html=1;shape=mxgraph.flowchart.decision;whiteSpace=wrap;" vertex="1" parent="WIyWlLk6GJQsqaUBKTNV-1">
          <mxGeometry x="75" y="280" width="180" height="80" as="geometry" />
        </mxCell>
        <mxCell id="70mB0MUAQwCus1WgMACm-7" style="edgeStyle=orthogonalEdgeStyle;rounded=0;orthogonalLoop=1;jettySize=auto;html=1;exitX=0.5;exitY=1;exitDx=0;exitDy=0;entryX=0.5;entryY=0;entryDx=0;entryDy=0;entryPerimeter=0;" edge="1" parent="WIyWlLk6GJQsqaUBKTNV-1" source="70mB0MUAQwCus1WgMACm-1" target="70mB0MUAQwCus1WgMACm-3">
          <mxGeometry relative="1" as="geometry" />
        </mxCell>
        <mxCell id="70mB0MUAQwCus1WgMACm-15" style="edgeStyle=orthogonalEdgeStyle;rounded=0;orthogonalLoop=1;jettySize=auto;html=1;exitX=0.5;exitY=1;exitDx=0;exitDy=0;entryX=0.5;entryY=0;entryDx=0;entryDy=0;" edge="1" parent="WIyWlLk6GJQsqaUBKTNV-1" source="70mB0MUAQwCus1WgMACm-9" target="70mB0MUAQwCus1WgMACm-12">
          <mxGeometry relative="1" as="geometry" />
        </mxCell>
        <mxCell id="70mB0MUAQwCus1WgMACm-9" value="Change Status Variable" style="rounded=0;whiteSpace=wrap;html=1;" vertex="1" parent="WIyWlLk6GJQsqaUBKTNV-1">
          <mxGeometry x="82.5" y="610" width="165" height="60" as="geometry" />
        </mxCell>
        <mxCell id="70mB0MUAQwCus1WgMACm-16" style="edgeStyle=orthogonalEdgeStyle;rounded=0;orthogonalLoop=1;jettySize=auto;html=1;exitX=0.5;exitY=1;exitDx=0;exitDy=0;entryX=0.5;entryY=0;entryDx=0;entryDy=0;" edge="1" parent="WIyWlLk6GJQsqaUBKTNV-1" source="70mB0MUAQwCus1WgMACm-12" target="70mB0MUAQwCus1WgMACm-13">
          <mxGeometry relative="1" as="geometry" />
        </mxCell>
        <mxCell id="70mB0MUAQwCus1WgMACm-12" value="Send 2 bytes to LCD slave" style="rounded=0;whiteSpace=wrap;html=1;" vertex="1" parent="WIyWlLk6GJQsqaUBKTNV-1">
          <mxGeometry x="82.5" y="710" width="165" height="60" as="geometry" />
        </mxCell>
        <mxCell id="70mB0MUAQwCus1WgMACm-26" style="edgeStyle=orthogonalEdgeStyle;rounded=0;orthogonalLoop=1;jettySize=auto;html=1;exitX=0;exitY=0.5;exitDx=0;exitDy=0;entryX=0;entryY=0.5;entryDx=0;entryDy=0;" edge="1" parent="WIyWlLk6GJQsqaUBKTNV-1" source="70mB0MUAQwCus1WgMACm-13" target="70mB0MUAQwCus1WgMACm-17">
          <mxGeometry relative="1" as="geometry">
            <Array as="points">
              <mxPoint x="40" y="840" />
              <mxPoint x="40" y="420" />
            </Array>
          </mxGeometry>
        </mxCell>
        <mxCell id="70mB0MUAQwCus1WgMACm-13" value="Send byte to LED slave" style="rounded=0;whiteSpace=wrap;html=1;" vertex="1" parent="WIyWlLk6GJQsqaUBKTNV-1">
          <mxGeometry x="82.5" y="810" width="165" height="60" as="geometry" />
        </mxCell>
        <mxCell id="70mB0MUAQwCus1WgMACm-17" value="Poll keypress" style="rounded=0;whiteSpace=wrap;html=1;" vertex="1" parent="WIyWlLk6GJQsqaUBKTNV-1">
          <mxGeometry x="82.5" y="390" width="165" height="60" as="geometry" />
        </mxCell>
        <mxCell id="70mB0MUAQwCus1WgMACm-21" style="edgeStyle=orthogonalEdgeStyle;rounded=0;orthogonalLoop=1;jettySize=auto;html=1;exitX=0.5;exitY=1;exitDx=0;exitDy=0;exitPerimeter=0;entryX=0.5;entryY=0;entryDx=0;entryDy=0;" edge="1" parent="WIyWlLk6GJQsqaUBKTNV-1" source="70mB0MUAQwCus1WgMACm-18" target="70mB0MUAQwCus1WgMACm-9">
          <mxGeometry relative="1" as="geometry" />
        </mxCell>
        <mxCell id="70mB0MUAQwCus1WgMACm-22" value="Yes" style="edgeLabel;html=1;align=center;verticalAlign=middle;resizable=0;points=[];" vertex="1" connectable="0" parent="70mB0MUAQwCus1WgMACm-21">
          <mxGeometry x="-0.2961" y="-4" relative="1" as="geometry">
            <mxPoint as="offset" />
          </mxGeometry>
        </mxCell>
        <mxCell id="70mB0MUAQwCus1WgMACm-23" value="No" style="edgeLabel;html=1;align=center;verticalAlign=middle;resizable=0;points=[];" vertex="1" connectable="0" parent="70mB0MUAQwCus1WgMACm-21">
          <mxGeometry x="-0.2569" y="-4" relative="1" as="geometry">
            <mxPoint as="offset" />
          </mxGeometry>
        </mxCell>
        <mxCell id="70mB0MUAQwCus1WgMACm-24" style="edgeStyle=orthogonalEdgeStyle;rounded=0;orthogonalLoop=1;jettySize=auto;html=1;exitX=1;exitY=0.5;exitDx=0;exitDy=0;exitPerimeter=0;" edge="1" parent="WIyWlLk6GJQsqaUBKTNV-1" source="70mB0MUAQwCus1WgMACm-18">
          <mxGeometry relative="1" as="geometry">
            <mxPoint x="300" y="320" as="targetPoint" />
          </mxGeometry>
        </mxCell>
        <mxCell id="70mB0MUAQwCus1WgMACm-25" value="Yes" style="edgeLabel;html=1;align=center;verticalAlign=middle;resizable=0;points=[];" vertex="1" connectable="0" parent="70mB0MUAQwCus1WgMACm-24">
          <mxGeometry x="-0.7992" y="-8" relative="1" as="geometry">
            <mxPoint as="offset" />
          </mxGeometry>
        </mxCell>
        <mxCell id="70mB0MUAQwCus1WgMACm-18" value="keypress == &#39;D&#39; ?" style="strokeWidth=2;html=1;shape=mxgraph.flowchart.decision;whiteSpace=wrap;" vertex="1" parent="WIyWlLk6GJQsqaUBKTNV-1">
          <mxGeometry x="75" y="470" width="180" height="80" as="geometry" />
        </mxCell>
        <mxCell id="70mB0MUAQwCus1WgMACm-20" style="edgeStyle=orthogonalEdgeStyle;rounded=0;orthogonalLoop=1;jettySize=auto;html=1;exitX=0.5;exitY=1;exitDx=0;exitDy=0;entryX=0.5;entryY=0;entryDx=0;entryDy=0;entryPerimeter=0;" edge="1" parent="WIyWlLk6GJQsqaUBKTNV-1" source="70mB0MUAQwCus1WgMACm-17" target="70mB0MUAQwCus1WgMACm-18">
          <mxGeometry relative="1" as="geometry" />
        </mxCell>
      </root>
    </mxGraphModel>
  </diagram>
</mxfile>
